<?xml version="1.0" encoding="UTF-8"?>
<svg version="1.1" xmlns="http://www.w3.org/2000/svg" width="512" height="512">
<path d="M0 0 C168.96 0 337.92 0 512 0 C512 168.96 512 337.92 512 512 C343.04 512 174.08 512 0 512 C0 343.04 0 174.08 0 0 Z " fill="#202122" transform="translate(0,0)"/>
<path d="M0 0 C1.17657228 -0.00282738 2.35314457 -0.00565475 3.56537056 -0.00856781 C9.79398946 -0.02346033 16.0225858 -0.03275207 22.2512207 -0.03710938 C28.60098795 -0.04257563 34.95053883 -0.06659397 41.30023861 -0.09508133 C46.25869811 -0.11392941 51.21710779 -0.11892496 56.17560005 -0.12044525 C58.51259097 -0.12342321 60.8495821 -0.13128111 63.18653679 -0.14463043 C125.32597352 -0.47423855 125.32597352 -0.47423855 145.34765625 17.953125 C159.40178359 33.12813367 157.97265625 55.06611575 157.97265625 74.203125 C136.85265625 74.203125 115.73265625 74.203125 93.97265625 74.203125 C92.98265625 68.263125 92.98265625 68.263125 91.97265625 62.203125 C90.48110114 58.80237936 89.50819395 56.92949335 86.10980988 55.32192707 C80.35183305 53.34481029 75.25332771 52.77694729 69.18945312 52.83081055 C68.25649918 52.82715988 67.32354523 52.82350922 66.36231995 52.81974792 C63.30515845 52.81169983 60.24853664 52.82520477 57.19140625 52.83984375 C55.05106608 52.84036305 52.91072544 52.83984266 50.77038574 52.83833313 C46.29525588 52.8384226 41.82030711 52.84879996 37.34521484 52.86694336 C31.62580525 52.88962934 25.90665992 52.89017174 20.18721771 52.88342571 C15.77070797 52.88007489 11.35425782 52.88673679 6.9377594 52.89655495 C4.82955742 52.90038803 2.72134878 52.90156306 0.61314392 52.8999691 C-2.33941141 52.89959581 -5.29163537 52.91229231 -8.24414062 52.9284668 C-9.10466537 52.92598938 -9.96519012 52.92351196 -10.85179138 52.92095947 C-20.33162506 52.83739236 -20.33162506 52.83739236 -28.65709686 56.58877087 C-33.71392693 62.54646695 -33.56059569 67.64872255 -33.02734375 75.203125 C-31.77994704 79.15321459 -30.98929346 80.60069935 -27.49804688 82.78710938 C-23.15014628 84.56101367 -19.27608861 84.96199684 -14.62109375 85.296875 C-13.6403186 85.37450073 -12.65954346 85.45212646 -11.64904785 85.53210449 C5.02705255 86.75160351 21.76458661 87.14320516 38.47265625 87.703125 C77.98962646 89.03529181 77.98962646 89.03529181 96.40234375 90.2109375 C97.64431519 90.28896606 98.88628662 90.36699463 100.16589355 90.4473877 C117.7196154 91.63131293 136.86217356 93.72245171 150.97265625 105.203125 C150.97265625 105.863125 150.97265625 106.523125 150.97265625 107.203125 C151.63265625 107.203125 152.29265625 107.203125 152.97265625 107.203125 C168.94656245 127.19018005 167.83265377 156.18032347 165.14990234 180.2824707 C163.13678111 195.71235773 158.74059612 210.45930612 146.203125 220.64453125 C130.09301489 231.90185863 108.23161613 232.21269471 89.34765625 232.75390625 C88.64624512 232.77472071 87.94483398 232.79553516 87.22216797 232.81698036 C69.9042719 233.32057902 52.58589104 233.39051832 35.26171875 233.38842773 C31.73562509 233.38834632 28.20966097 233.39533993 24.68359375 233.40893555 C6.60319032 233.47744852 -11.42509499 233.39353508 -29.4765625 232.27734375 C-30.15500717 232.23572805 -30.83345184 232.19411236 -31.53245544 232.15123558 C-52.29608563 230.84109507 -74.24867127 228.33610226 -89.27734375 212.3984375 C-102.28281804 196.08353448 -100.02734375 174.75053587 -100.02734375 155.203125 C-78.90734375 155.203125 -57.78734375 155.203125 -36.02734375 155.203125 C-35.03734375 161.638125 -35.03734375 161.638125 -34.02734375 168.203125 C-30.82825353 174.61849665 -30.82825353 174.61849665 -25.02734375 178.203125 C-13.93529992 180.97262833 -2.39525706 180.49573885 8.9453125 180.46875 C10.96064806 180.47010054 12.97598329 180.4720443 14.99131775 180.47454834 C19.19452039 180.47748062 23.39763746 180.47326296 27.60083008 180.46386719 C32.95885807 180.45246648 38.31668577 180.45904823 43.67470646 180.47101212 C47.8296812 180.47827587 51.98460927 180.47592227 56.13958549 180.47075653 C58.11413027 180.46943288 60.08867943 180.47102212 62.06321907 180.47571564 C81.19958642 181.46542251 81.19958642 181.46542251 97.97265625 174.203125 C100.51815663 169.96541087 100.37529498 166.08810051 100.41015625 161.265625 C100.44302734 160.46705078 100.47589844 159.66847656 100.50976562 158.84570312 C100.54943044 154.49339093 100.40058039 152.74782046 97.625 149.21484375 C90.08095089 143.49292138 79.95007087 144.03003599 70.88671875 143.7734375 C68.60147711 143.70129869 66.31623968 143.6290266 64.03100586 143.55664062 C62.82169403 143.51966064 61.6123822 143.48268066 60.36642456 143.44458008 C53.87406797 143.24396602 47.38229148 143.02639972 40.890625 142.8046875 C40.21202738 142.78153221 39.53342976 142.75837692 38.83426857 142.73451996 C22.89544252 142.1873544 6.96259488 141.51722654 -8.96930695 140.79793549 C-11.06993204 140.70401526 -13.17065224 140.61262449 -15.27142334 140.52203369 C-70.89206697 138.11435731 -70.89206697 138.11435731 -85.77734375 122.515625 C-96.93981555 108.74682134 -98.56515186 91.98688456 -98.41845703 74.92138672 C-98.4023463 72.70347666 -98.41843533 70.48738758 -98.4375 68.26953125 C-98.4654739 49.58954358 -95.20636584 30.66414504 -82.32421875 16.3046875 C-61.8094323 -3.43432972 -26.25191716 0.0431427 0 0 Z " fill="#FDFDFD" transform="translate(223.02734375,138.796875)"/>
</svg>
